Simulation
nRows=36
nColumns=15
endheader
time  TH_x TH_y TH_z SC_y  SC_z  SC_x  AC_y  AC_z  AC_x  GH_y  GH_z  GH_yy  EL_x  PS_y
8.6175  0.000000  0.000000  0.000000  -34.037229454960496  -4.19566802591845  16.582214222356864  48.896949976429056  -23.010990307560224  -6.265612808483565  -19.037901750165595  22.09482068914544  24.636764818634138  20.62650843715689  120.000000
8.67495  0.000000  0.000000  0.000000  -34.075495440337654  -4.133581533621863  15.510586934200122  49.40260046299031  -22.5656477197313  -5.055147159250654  -19.29626148523105  22.7825308617536  24.664547382311508  20.55295962943211  120.000000
8.7324  0.000000  0.000000  0.000000  -34.14283541942011  -4.16534048321659  14.318760416337081  50.11569862129232  -22.181215227341454  -3.5477816594047358  -18.8429123897386  23.6373369457389  24.228684674920803  20.65625608665826  120.000000
8.78985  0.000000  0.000000  0.000000  -34.251304117933614  -4.278111946439165  13.020527774752019  51.05578125693475  -21.81040485282009  -1.7492912528843771  -17.591836865191507  24.62375189777055  23.216899653001903  20.912487428033426  120.000000
8.8473  0.000000  0.000000  0.000000  -34.41394315962485  -4.427892220469911  11.65979904230025  52.2286676813273  -21.384553258731902  0.30499545413235307  -15.526056767551765  25.679764005044106  21.540299549873318  21.25332037581713  120.000000
8.90475  0.000000  0.000000  0.000000  -34.67362318224715  -4.537697836619157  10.307005243922454  53.63124532009256  -20.82979450183124  2.559383101504  -12.634015190765478  26.72576535410336  19.0967773039058  21.604424327660396  120.000000
8.9622  0.000000  0.000000  0.000000  -35.11386754019629  -4.503827856119722  9.054858366836118  55.25034639934946  -20.085331905956885  4.942649250860958  -8.8593825273837  27.681400088945598  15.740538188777638  21.916187280448657  120.000000
9.01965  0.000000  0.000000  0.000000  -35.809792298650216  -4.19912783699595  8.022116629986739  57.04725307373283  -19.121638372718778  7.370798227948673  -4.1488066406886785  28.48312114536142  11.319666763483571  22.1622168768868  120.000000
9.0771  0.000000  0.000000  0.000000  -36.75427388246725  -3.4898085308247664  7.360776575800311  58.954334901353846  -17.95800739110462  9.752067442417173  1.4591104471783898  29.10307065634979  5.74175884123897  22.329120519762082  120.000000
9.13455  0.000000  0.000000  0.000000  -37.8419283739324  -2.2585249762870965  7.258493337733169  60.890043607178484  -16.678752774293603  12.012966426983505  7.824965087610039  29.571213706439114  -1.0083546459130628  22.402030036184335  120.000000
9.192  0.000000  0.000000  0.000000  -38.945541241533824  -0.44743585205536685  7.905795972883666  62.79157312695835  -15.388147995465138  14.107762900376136  14.797982453234427  29.990060963030253  -8.906273924892306  22.374059083895535  120.000000
9.24945  0.000000  0.000000  0.000000  -40.00038714912428  1.910455685698378  9.446830100160058  64.61376798173124  -14.141288684175013  15.997008742161901  22.23846961926019  30.528611423946625  -17.859869630499666  22.25087146909275  120.000000
9.3069  0.000000  0.000000  0.000000  -41.052027104220436  4.729859499325064  11.95650778327929  66.29588498609921  -12.971567561992266  17.657359376671668  29.9118187153831  31.402156638488  -27.593893503500194  22.029440792761715  120.000000
9.36435  0.000000  0.000000  0.000000  -42.23644229352267  7.890671751226927  15.439693735723795  67.74191025627889  -11.911977849485913  19.08232690230939  37.423780291150905  32.78549759592837  -37.59898899427049  21.70262252428066  120.000000
9.421800000000001  0.000000  0.000000  0.000000  -43.694564106705094  11.22198186679958  19.83388220905373  68.8386037824061  -10.996875061708982  20.275254316452685  44.32749209406085  34.71877159845343  -47.27079080976678  21.278472980296517  120.000000
9.47925  0.000000  0.000000  0.000000  -45.476215270228046  14.500950123023793  24.995490349129508  69.48490336663941  -10.259805171671431  21.243350919968957  50.276093787078906  37.0867821847754  -56.09810638160925  20.777507220803287  120.000000
9.5367  0.000000  0.000000  0.000000  -47.516227260405685  17.506188490156237  30.698815350386457  69.61916492352316  -9.726108313283063  21.995811491168016  55.0870478653977  39.67005559977975  -63.751976710113375  20.228178747806925  120.000000
9.59415  0.000000  0.000000  0.000000  -49.70369313982719  20.064449892684213  36.6533217053813  69.25908285862732  -9.399572063090021  22.54186096803742  58.72909521656102  42.234333448104195  -70.07349437903892  19.678659120769186  120.000000
9.6516  0.000000  0.000000  0.000000  -51.91312036921925  22.030477657578476  42.515068979868616  68.48729232560024  -9.219802019905602  22.876486068331523  61.33910055681462  44.56587193869484  -75.06345723698122  19.174364978553363  120.000000
9.70905  0.000000  0.000000  0.000000  -54.01059895839343  23.31377916622731  47.93024305792256  67.44040784973024  -9.119463817926032  23.001252287021387  63.155390268323494  46.5174906365484  -78.82543147268488  18.743629081288216  120.000000
9.7665  0.000000  0.000000  0.000000  -55.85855832039979  23.943034141567825  52.59051432501752  66.29334601024634  -9.076803059820543  22.937336068925795  64.39970768152162  48.04135537657443  -81.48991744134315  18.408799150889255  120.000000
9.82395  0.000000  0.000000  0.000000  -57.31562035269562  24.067400859502875  56.270753428359015  65.20686115158757  -9.091246471273674  22.711080613725592  65.24229344927798  49.156635493989796  -83.20280957606829  18.1822166283897  120.000000
9.8814  0.000000  0.000000  0.000000  -58.277684663611794  23.89860164743716  58.859454099936876  64.3059823796004  -9.175532638278996  22.342503621099862  65.79871958524654  49.910892244547654  -84.12366662312827  18.06574842098153  120.000000
9.93885  0.000000  0.000000  0.000000  -58.71264961660182  23.643939506491513  60.36430778957395  63.669479838036956  -9.36390746808418  21.849114065821748  66.14416336529726  50.34571391069731  -84.41611860091685  18.04745926254831  120.000000
9.9963  0.000000  0.000000  0.000000  -58.67520217555658  23.468947054291657  60.90423323639392  63.32936586249633  -9.71937309874379  21.25360741059096  66.33581276472825  50.4722478544145  -84.22711080758006  18.099617313042454  120.000000
10.05375  0.000000  0.000000  0.000000  -58.218681845905905  23.439544383850947  60.55926820688937  63.28118838333139  -10.274536910117046  20.58401238211507  66.40215350767174  50.28987693533678  -83.64356406853364  18.18871628228699  120.000000
10.1112  0.000000  0.000000  0.000000  -57.30937437901453  23.472351488779577  59.23109917589409  63.49381926814726  -10.968562219279558  19.87300493933732  66.31773924157226  49.816861315411494  -82.65037521098056  18.290987741064832  120.000000
10.16865  0.000000  0.000000  0.000000  -55.9262325706442  23.391821146747855  56.80212934019285  63.91203260415423  -11.693233406538223  19.16190011907035  66.02134395135293  49.05579165373266  -81.14146324624583  18.386370360644193  120.000000
10.2261  0.000000  0.000000  0.000000  -54.151357880349735  23.003552945698946  53.28999446687302  64.45951439828929  -12.345963830475068  18.499212432208008  65.4217836034067  47.97304619731977  -78.94809877027993  18.455166438867742  120.000000
10.28355  0.000000  0.000000  0.000000  -52.149746117990986  22.14378800199693  48.843626359738415  65.05610210866672  -12.837251295498193  17.93163582400961  64.37287367408338  46.5255980910141  -75.86398742226724  18.48304107080204  120.000000
10.341000000000001  0.000000  0.000000  0.000000  -50.11885243356021  20.744686724990945  43.708747150681745  65.63615442689847  -13.120742624017733  17.504541972943898  62.6586800252404  44.69464940058596  -71.67066246860207  18.46990498381087  120.000000
10.39845  0.000000  0.000000  0.000000  -48.21933031724264  18.859809383712054  38.1658397397586  66.14424967784667  -13.227819081657062  17.270804625494897  59.999971657949004  42.51920520316233  -66.16019741863488  18.43891899684673  120.000000
10.4559  0.000000  0.000000  0.000000  -46.51946628574718  16.61081383719787  32.471879732204755  66.51888239350028  -13.207100778401646  17.253985719811023  56.135475290299304  40.116456369530596  -59.18755161114057  18.450381454599867  120.000000
10.51335  0.000000  0.000000  0.000000  -45.01125013089834  14.122110514600726  26.846480432970385  66.71045257875832  -13.086031437998898  17.417401679642012  50.912629374761295  37.690797279536056  -50.72852227348199  18.59295352616992  120.000000
10.5708  0.000000  0.000000  0.000000  -43.670238182727864  11.497176614352666  21.49868449885911  66.69377103360159  -12.916242602011394  17.679974992484254  44.33368159963012  35.50024037884553  -40.917810762353284  18.950077252463384  120.000000
10.62825  0.000000  0.000000  0.000000  -42.488607823174824  8.821729978045322  16.623668811361515  66.46328703875527  -12.772651113615154  17.928937612864505  36.60203661910471  33.80641290866009  -30.09846031821062  19.55519168502379  120.000000
